<svg xmlns="http://www.w3.org/2000/svg" xmlns:xlink="http://www.w3.org/1999/xlink" width="1920" zoomAndPan="magnify" viewBox="0 0 1440 1274.999945" height="1700" preserveAspectRatio="xMidYMid meet" version="1.0"><defs><clipPath id="f0a8db3380"><path d="M 1033 219 L 1217.96875 219 L 1217.96875 455 L 1033 455 Z M 1033 219 " clip-rule="nonzero"/></clipPath></defs><path fill="#7a8593" d="M 1035.789062 237.996094 L 1057.386719 222.066406 L 1215.601562 436.460938 L 1194.003906 452.390625 Z M 1035.789062 237.996094 " fill-opacity="1" fill-rule="nonzero"/><g clip-path="url(#f0a8db3380)"><path fill="#535a63" d="M 1193.996094 454.472656 C 1193.890625 454.472656 1193.785156 454.460938 1193.679688 454.445312 C 1193.128906 454.359375 1192.628906 454.0625 1192.296875 453.609375 L 1034.078125 239.21875 C 1033.742188 238.769531 1033.605469 238.207031 1033.6875 237.65625 C 1033.773438 237.101562 1034.074219 236.605469 1034.523438 236.269531 L 1056.121094 220.339844 C 1057.054688 219.648438 1058.375 219.847656 1059.066406 220.78125 L 1217.289062 435.175781 C 1217.980469 436.109375 1217.78125 437.429688 1216.84375 438.121094 L 1195.25 454.054688 C 1194.886719 454.324219 1194.445312 454.464844 1193.996094 454.464844 Z M 1038.726562 238.417969 L 1194.4375 449.414062 L 1212.640625 435.988281 L 1056.925781 224.992188 Z M 1038.726562 238.417969 " fill-opacity="1" fill-rule="nonzero"/></g><path fill="#7a8593" d="M 1103.347656 163.289062 C 1103.347656 165.023438 1103.304688 166.757812 1103.21875 168.488281 C 1103.132812 170.222656 1103.007812 171.953125 1102.835938 173.679688 C 1102.664062 175.40625 1102.453125 177.125 1102.199219 178.839844 C 1101.945312 180.558594 1101.648438 182.265625 1101.308594 183.964844 C 1100.972656 185.667969 1100.589844 187.359375 1100.167969 189.042969 C 1099.746094 190.726562 1099.285156 192.394531 1098.78125 194.054688 C 1098.277344 195.714844 1097.734375 197.363281 1097.148438 198.996094 C 1096.566406 200.628906 1095.941406 202.246094 1095.277344 203.847656 C 1094.613281 205.453125 1093.910156 207.035156 1093.167969 208.605469 C 1092.425781 210.171875 1091.648438 211.722656 1090.828125 213.25 C 1090.011719 214.78125 1089.15625 216.289062 1088.265625 217.777344 C 1087.371094 219.265625 1086.445312 220.730469 1085.480469 222.171875 C 1084.515625 223.617188 1083.515625 225.03125 1082.484375 226.425781 C 1081.449219 227.820312 1080.382812 229.1875 1079.28125 230.527344 C 1078.183594 231.867188 1077.050781 233.179688 1075.882812 234.464844 C 1074.71875 235.75 1073.523438 237.007812 1072.296875 238.234375 C 1071.070312 239.460938 1069.8125 240.65625 1068.527344 241.820312 C 1067.242188 242.984375 1065.929688 244.117188 1064.589844 245.21875 C 1063.246094 246.320312 1061.878906 247.386719 1060.484375 248.417969 C 1059.09375 249.453125 1057.675781 250.453125 1056.230469 251.414062 C 1054.789062 252.378906 1053.324219 253.304688 1051.835938 254.199219 C 1050.347656 255.089844 1048.839844 255.945312 1047.308594 256.761719 C 1045.777344 257.578125 1044.230469 258.359375 1042.660156 259.101562 C 1041.09375 259.84375 1039.507812 260.546875 1037.902344 261.210938 C 1036.300781 261.875 1034.683594 262.496094 1033.050781 263.082031 C 1031.414062 263.664062 1029.769531 264.210938 1028.109375 264.714844 C 1026.449219 265.21875 1024.777344 265.679688 1023.09375 266.101562 C 1021.410156 266.523438 1019.71875 266.902344 1018.015625 267.242188 C 1016.316406 267.578125 1014.605469 267.875 1012.890625 268.128906 C 1011.175781 268.382812 1009.453125 268.597656 1007.726562 268.765625 C 1006 268.9375 1004.269531 269.0625 1002.535156 269.148438 C 1000.804688 269.234375 999.070312 269.277344 997.335938 269.277344 C 995.601562 269.277344 993.867188 269.234375 992.132812 269.148438 C 990.402344 269.0625 988.671875 268.9375 986.945312 268.765625 C 985.21875 268.597656 983.496094 268.382812 981.78125 268.128906 C 980.0625 267.875 978.355469 267.578125 976.652344 267.242188 C 974.953125 266.902344 973.257812 266.523438 971.578125 266.101562 C 969.894531 265.679688 968.222656 265.21875 966.5625 264.714844 C 964.902344 264.210938 963.253906 263.664062 961.621094 263.082031 C 959.988281 262.496094 958.371094 261.875 956.765625 261.210938 C 955.164062 260.546875 953.578125 259.84375 952.007812 259.101562 C 950.441406 258.359375 948.890625 257.578125 947.363281 256.761719 C 945.832031 255.945312 944.324219 255.089844 942.835938 254.199219 C 941.347656 253.304688 939.882812 252.378906 938.4375 251.414062 C 936.996094 250.453125 935.578125 249.453125 934.183594 248.417969 C 932.789062 247.386719 931.421875 246.320312 930.082031 245.21875 C 928.742188 244.117188 927.429688 242.984375 926.140625 241.820312 C 924.855469 240.65625 923.601562 239.460938 922.375 238.234375 C 921.148438 237.007812 919.953125 235.75 918.785156 234.464844 C 917.621094 233.179688 916.488281 231.867188 915.386719 230.527344 C 914.285156 229.1875 913.21875 227.820312 912.1875 226.425781 C 911.152344 225.03125 910.152344 223.617188 909.191406 222.171875 C 908.226562 220.730469 907.296875 219.265625 906.40625 217.777344 C 905.515625 216.289062 904.660156 214.78125 903.839844 213.25 C 903.023438 211.722656 902.242188 210.171875 901.503906 208.605469 C 900.761719 207.035156 900.058594 205.453125 899.394531 203.847656 C 898.730469 202.246094 898.105469 200.628906 897.519531 198.996094 C 896.9375 197.363281 896.390625 195.714844 895.890625 194.054688 C 895.386719 192.394531 894.921875 190.726562 894.5 189.042969 C 894.078125 187.359375 893.699219 185.667969 893.359375 183.964844 C 893.023438 182.265625 892.726562 180.558594 892.472656 178.839844 C 892.21875 177.125 892.003906 175.40625 891.835938 173.679688 C 891.664062 171.953125 891.535156 170.222656 891.453125 168.488281 C 891.367188 166.757812 891.324219 165.023438 891.324219 163.289062 C 891.324219 161.554688 891.367188 159.820312 891.453125 158.089844 C 891.535156 156.355469 891.664062 154.628906 891.835938 152.902344 C 892.003906 151.175781 892.21875 149.453125 892.472656 147.738281 C 892.726562 146.023438 893.023438 144.3125 893.359375 142.613281 C 893.699219 140.910156 894.078125 139.21875 894.5 137.535156 C 894.921875 135.855469 895.386719 134.183594 895.890625 132.523438 C 896.390625 130.863281 896.9375 129.214844 897.519531 127.582031 C 898.105469 125.949219 898.730469 124.332031 899.394531 122.730469 C 900.058594 121.128906 900.761719 119.542969 901.503906 117.972656 C 902.242188 116.40625 903.023438 114.855469 903.84375 113.328125 C 904.660156 111.796875 905.515625 110.289062 906.40625 108.800781 C 907.296875 107.3125 908.226562 105.847656 909.191406 104.40625 C 910.152344 102.964844 911.152344 101.546875 912.1875 100.152344 C 913.21875 98.757812 914.285156 97.390625 915.386719 96.050781 C 916.488281 94.710938 917.621094 93.398438 918.785156 92.113281 C 919.953125 90.828125 921.148438 89.570312 922.375 88.34375 C 923.601562 87.117188 924.855469 85.921875 926.140625 84.757812 C 927.429688 83.59375 928.742188 82.460938 930.082031 81.359375 C 931.421875 80.257812 932.789062 79.191406 934.183594 78.160156 C 935.578125 77.125 936.996094 76.128906 938.4375 75.164062 C 939.882812 74.199219 941.347656 73.273438 942.835938 72.378906 C 944.324219 71.488281 945.832031 70.632812 947.363281 69.816406 C 948.890625 69 950.441406 68.21875 952.007812 67.476562 C 953.578125 66.734375 955.164062 66.035156 956.765625 65.371094 C 958.371094 64.707031 959.988281 64.082031 961.621094 63.496094 C 963.253906 62.914062 964.902344 62.371094 966.5625 61.867188 C 968.222656 61.363281 969.894531 60.898438 971.578125 60.476562 C 973.257812 60.058594 974.953125 59.675781 976.652344 59.339844 C 978.355469 59 980.0625 58.703125 981.78125 58.449219 C 983.496094 58.195312 985.21875 57.980469 986.945312 57.8125 C 988.671875 57.640625 990.402344 57.515625 992.132812 57.429688 C 993.867188 57.34375 995.601562 57.300781 997.335938 57.300781 C 999.070312 57.300781 1000.804688 57.34375 1002.535156 57.429688 C 1004.269531 57.515625 1006 57.640625 1007.726562 57.8125 C 1009.453125 57.980469 1011.175781 58.195312 1012.890625 58.449219 C 1014.605469 58.703125 1016.316406 59 1018.015625 59.339844 C 1019.71875 59.675781 1021.410156 60.058594 1023.09375 60.476562 C 1024.777344 60.898438 1026.449219 61.363281 1028.109375 61.867188 C 1029.769531 62.371094 1031.414062 62.914062 1033.050781 63.496094 C 1034.683594 64.082031 1036.300781 64.707031 1037.902344 65.371094 C 1039.507812 66.035156 1041.09375 66.734375 1042.660156 67.476562 C 1044.230469 68.21875 1045.777344 69 1047.308594 69.816406 C 1048.839844 70.632812 1050.347656 71.488281 1051.835938 72.378906 C 1053.324219 73.273438 1054.789062 74.199219 1056.230469 75.164062 C 1057.675781 76.128906 1059.09375 77.125 1060.484375 78.160156 C 1061.878906 79.191406 1063.246094 80.257812 1064.589844 81.359375 C 1065.929688 82.460938 1067.242188 83.59375 1068.527344 84.757812 C 1069.8125 85.921875 1071.070312 87.117188 1072.296875 88.34375 C 1073.523438 89.570312 1074.71875 90.828125 1075.882812 92.113281 C 1077.050781 93.398438 1078.183594 94.710938 1079.28125 96.050781 C 1080.382812 97.390625 1081.449219 98.757812 1082.484375 100.152344 C 1083.519531 101.546875 1084.515625 102.964844 1085.480469 104.40625 C 1086.445312 105.847656 1087.371094 107.3125 1088.265625 108.800781 C 1089.15625 110.289062 1090.011719 111.796875 1090.828125 113.328125 C 1091.648438 114.855469 1092.425781 116.40625 1093.167969 117.972656 C 1093.910156 119.542969 1094.613281 121.128906 1095.277344 122.730469 C 1095.941406 124.332031 1096.566406 125.949219 1097.148438 127.582031 C 1097.734375 129.214844 1098.277344 130.863281 1098.78125 132.523438 C 1099.285156 134.183594 1099.746094 135.855469 1100.167969 137.535156 C 1100.589844 139.21875 1100.972656 140.910156 1101.308594 142.613281 C 1101.648438 144.3125 1101.945312 146.023438 1102.199219 147.738281 C 1102.453125 149.453125 1102.664062 151.175781 1102.835938 152.902344 C 1103.007812 154.628906 1103.132812 156.355469 1103.21875 158.089844 C 1103.304688 159.820312 1103.347656 161.554688 1103.347656 163.289062 Z M 1103.347656 163.289062 " fill-opacity="1" fill-rule="nonzero"/><path fill="#535a63" d="M 997.5625 271.40625 C 992.132812 271.40625 986.671875 270.996094 981.207031 270.175781 C 952.648438 265.871094 927.480469 250.703125 910.332031 227.464844 C 893.1875 204.230469 886.113281 175.710938 890.425781 147.164062 C 894.730469 118.613281 909.902344 93.449219 933.144531 76.308594 C 956.382812 59.164062 984.910156 52.09375 1013.464844 56.402344 C 1042.023438 60.710938 1067.191406 75.878906 1084.335938 99.113281 C 1101.480469 122.347656 1108.554688 150.867188 1104.246094 179.414062 C 1099.9375 207.96875 1084.765625 233.128906 1061.527344 250.273438 C 1042.734375 264.132812 1020.488281 271.40625 997.5625 271.40625 Z M 997.117188 59.386719 C 975.082031 59.386719 953.707031 66.375 935.644531 79.699219 C 913.3125 96.171875 898.734375 120.355469 894.59375 147.792969 C 890.449219 175.226562 897.246094 202.636719 913.726562 224.960938 C 930.203125 247.289062 954.390625 261.863281 981.835938 266.003906 C 987.085938 266.796875 992.339844 267.191406 997.554688 267.191406 C 1019.589844 267.191406 1040.964844 260.199219 1059.027344 246.878906 C 1081.359375 230.402344 1095.9375 206.21875 1100.078125 178.78125 C 1104.21875 151.347656 1097.425781 123.9375 1080.945312 101.613281 C 1064.464844 79.285156 1040.28125 64.710938 1012.835938 60.570312 C 1007.585938 59.777344 1002.328125 59.386719 997.117188 59.386719 Z M 997.117188 59.386719 " fill-opacity="1" fill-rule="nonzero"/><path fill="#9ca9ba" d="M 1074.871094 163.667969 C 1074.964844 147.539062 1070.042969 131.242188 1059.726562 117.261719 C 1034.300781 82.8125 985.761719 75.492188 951.304688 100.910156 C 937.324219 111.222656 927.8125 125.339844 923.140625 140.78125 L 1074.871094 163.664062 Z M 1074.871094 163.667969 " fill-opacity="1" fill-rule="nonzero"/><path fill="#535a63" d="M 1074.871094 165.777344 C 1074.765625 165.777344 1074.660156 165.769531 1074.554688 165.753906 L 922.824219 142.867188 C 922.214844 142.773438 921.679688 142.425781 921.355469 141.910156 C 921.027344 141.390625 920.941406 140.757812 921.117188 140.171875 C 926.117188 123.652344 936.121094 109.492188 950.054688 99.214844 C 967.167969 86.589844 988.183594 81.378906 1009.21875 84.550781 C 1030.25 87.722656 1048.792969 98.898438 1061.421875 116.007812 C 1071.699219 129.933594 1077.078125 146.417969 1076.980469 163.675781 C 1076.980469 164.289062 1076.707031 164.871094 1076.242188 165.265625 C 1075.859375 165.597656 1075.371094 165.773438 1074.871094 165.773438 Z M 925.902344 139.066406 L 1072.742188 161.214844 C 1072.339844 145.761719 1067.28125 131.046875 1058.03125 118.515625 C 1046.066406 102.304688 1028.507812 91.722656 1008.589844 88.722656 C 988.667969 85.71875 968.769531 90.648438 952.558594 102.609375 C 940.027344 111.851562 930.847656 124.421875 925.902344 139.066406 Z M 925.902344 139.066406 " fill-opacity="1" fill-rule="nonzero"/><path fill="#9ca9ba" d="M 919.800781 162.90625 C 919.707031 179.035156 924.628906 195.332031 934.945312 209.3125 C 960.371094 243.761719 1008.910156 251.082031 1043.363281 225.664062 C 1057.347656 215.351562 1066.859375 201.234375 1071.53125 185.796875 L 919.800781 162.910156 Z M 919.800781 162.90625 " fill-opacity="1" fill-rule="nonzero"/><path fill="#535a63" d="M 997.503906 242.929688 C 993.503906 242.929688 989.480469 242.628906 985.453125 242.023438 C 964.417969 238.851562 945.878906 227.675781 933.25 210.566406 C 922.96875 196.640625 917.59375 180.15625 917.691406 162.898438 C 917.691406 162.285156 917.964844 161.703125 918.429688 161.308594 C 918.890625 160.910156 919.507812 160.734375 920.113281 160.828125 L 1071.847656 183.710938 C 1072.453125 183.804688 1072.992188 184.15625 1073.316406 184.667969 C 1073.644531 185.1875 1073.730469 185.820312 1073.550781 186.40625 C 1068.554688 202.929688 1058.546875 217.089844 1044.621094 227.367188 C 1030.777344 237.574219 1014.390625 242.933594 997.503906 242.933594 Z M 921.933594 165.359375 C 922.332031 180.816406 927.394531 195.527344 936.644531 208.058594 C 948.605469 224.269531 966.164062 234.851562 986.085938 237.851562 C 1006.007812 240.859375 1025.90625 235.925781 1042.117188 223.964844 C 1054.648438 214.722656 1063.824219 202.152344 1068.773438 187.507812 Z M 921.933594 165.359375 " fill-opacity="1" fill-rule="nonzero"/><path fill="#9ca9ba" d="M 1048.816406 707.425781 L 1048.816406 707.273438 C 1048.808594 707.300781 1048.800781 707.324219 1048.796875 707.351562 C 1048.789062 707.324219 1048.78125 707.300781 1048.777344 707.273438 L 1048.777344 707.425781 C 1046.789062 714.632812 1042.195312 719.785156 1034.996094 722.886719 C 1042.195312 725.984375 1046.789062 731.136719 1048.777344 738.34375 L 1048.777344 738.496094 C 1048.785156 738.472656 1048.792969 738.445312 1048.796875 738.421875 C 1048.804688 738.445312 1048.8125 738.472656 1048.816406 738.496094 L 1048.816406 738.34375 C 1050.804688 731.136719 1055.398438 725.984375 1062.597656 722.886719 C 1055.398438 719.785156 1050.804688 714.632812 1048.816406 707.425781 Z M 1048.816406 707.425781 " fill-opacity="1" fill-rule="nonzero"/><path fill="#9ca9ba" d="M 247.199219 332.097656 L 247.199219 331.945312 C 247.1875 331.96875 247.179688 331.996094 247.175781 332.019531 C 247.167969 331.996094 247.160156 331.96875 247.15625 331.945312 L 247.15625 332.097656 C 245.167969 339.304688 240.574219 344.457031 233.375 347.554688 C 240.574219 350.65625 245.167969 355.808594 247.15625 363.015625 L 247.15625 363.167969 C 247.164062 363.140625 247.171875 363.117188 247.175781 363.089844 C 247.183594 363.117188 247.191406 363.140625 247.199219 363.167969 L 247.199219 363.015625 C 249.183594 355.808594 253.777344 350.65625 260.976562 347.554688 C 253.777344 344.457031 249.183594 339.304688 247.199219 332.097656 Z M 247.199219 332.097656 " fill-opacity="1" fill-rule="nonzero"/><path fill="#9ca9ba" d="M 1122.667969 961 L 1122.667969 960.847656 C 1122.660156 960.875 1122.652344 960.898438 1122.648438 960.925781 C 1122.640625 960.898438 1122.628906 960.875 1122.625 960.847656 L 1122.625 961 C 1120.640625 968.207031 1116.046875 973.359375 1108.847656 976.460938 C 1116.046875 979.558594 1120.640625 984.710938 1122.625 991.917969 L 1122.625 992.070312 C 1122.632812 992.046875 1122.644531 992.019531 1122.648438 991.996094 C 1122.65625 992.019531 1122.664062 992.046875 1122.667969 992.070312 L 1122.667969 991.917969 C 1124.65625 984.710938 1129.25 979.558594 1136.449219 976.460938 C 1129.25 973.359375 1124.65625 968.207031 1122.667969 961 Z M 1122.667969 961 " fill-opacity="1" fill-rule="nonzero"/><path fill="#9ca9ba" d="M 959.121094 865.308594 L 959.121094 865 C 959.109375 865.054688 959.09375 865.101562 959.078125 865.15625 C 959.066406 865.101562 959.050781 865.054688 959.039062 865 L 959.039062 865.308594 C 955.0625 879.714844 945.878906 890.027344 931.476562 896.226562 C 945.878906 902.425781 955.058594 912.734375 959.039062 927.144531 L 959.039062 927.453125 C 959.050781 927.398438 959.066406 927.351562 959.078125 927.296875 C 959.09375 927.351562 959.109375 927.398438 959.121094 927.453125 L 959.121094 927.144531 C 963.09375 912.734375 972.28125 902.425781 986.679688 896.226562 C 972.28125 890.027344 963.097656 879.714844 959.121094 865.308594 Z M 959.121094 865.308594 " fill-opacity="1" fill-rule="nonzero"/><path fill="#9ca9ba" d="M 344.578125 519.25 L 344.578125 518.941406 C 344.566406 518.996094 344.550781 519.042969 344.535156 519.097656 C 344.523438 519.042969 344.507812 518.996094 344.496094 518.941406 L 344.496094 519.25 C 340.519531 533.660156 331.335938 543.96875 316.933594 550.167969 C 331.335938 556.367188 340.515625 566.679688 344.496094 581.085938 L 344.496094 581.394531 C 344.507812 581.339844 344.523438 581.292969 344.535156 581.238281 C 344.550781 581.292969 344.566406 581.339844 344.578125 581.394531 L 344.578125 581.085938 C 348.550781 566.679688 357.738281 556.367188 372.136719 550.167969 C 357.738281 543.96875 348.554688 533.660156 344.578125 519.25 Z M 344.578125 519.25 " fill-opacity="1" fill-rule="nonzero"/><path fill="#9ca9ba" d="M 475.21875 170.9375 L 475.21875 170.632812 C 475.207031 170.6875 475.1875 170.730469 475.175781 170.789062 C 475.164062 170.730469 475.144531 170.6875 475.132812 170.632812 L 475.132812 170.9375 C 471.160156 185.347656 461.972656 195.660156 447.574219 201.855469 C 461.972656 208.054688 471.15625 218.367188 475.132812 232.777344 L 475.132812 233.082031 C 475.144531 233.027344 475.164062 232.980469 475.175781 232.925781 C 475.1875 232.980469 475.207031 233.027344 475.21875 233.082031 L 475.21875 232.777344 C 479.191406 218.367188 488.378906 208.054688 502.777344 201.855469 C 488.378906 195.660156 479.195312 185.347656 475.21875 170.9375 Z M 475.21875 170.9375 " fill-opacity="1" fill-rule="nonzero"/><path fill="#ffffff" d="M 927.277344 372.476562 C 927.277344 374.246094 927.230469 376.011719 927.140625 377.777344 C 927.046875 379.546875 926.910156 381.308594 926.726562 383.066406 C 926.546875 384.828125 926.316406 386.582031 926.042969 388.332031 C 925.769531 390.082031 925.449219 391.820312 925.085938 393.554688 C 924.722656 395.289062 924.316406 397.015625 923.863281 398.730469 C 923.410156 400.445312 922.910156 402.148438 922.371094 403.839844 C 921.828125 405.535156 921.242188 407.210938 920.613281 408.875 C 919.988281 410.542969 919.316406 412.191406 918.601562 413.824219 C 917.886719 415.457031 917.132812 417.074219 916.335938 418.671875 C 915.539062 420.269531 914.699219 421.851562 913.820312 423.410156 C 912.941406 424.96875 912.023438 426.507812 911.0625 428.023438 C 910.105469 429.539062 909.105469 431.035156 908.070312 432.503906 C 907.035156 433.972656 905.960938 435.417969 904.847656 436.839844 C 903.738281 438.261719 902.589844 439.652344 901.40625 441.019531 C 900.226562 442.386719 899.007812 443.726562 897.753906 445.035156 C 896.5 446.347656 895.214844 447.625 893.898438 448.878906 C 892.578125 450.128906 891.226562 451.347656 889.847656 452.535156 C 888.464844 453.722656 887.050781 454.875 885.609375 455.996094 C 884.167969 457.121094 882.699219 458.207031 881.199219 459.261719 C 879.703125 460.3125 878.179688 461.332031 876.628906 462.3125 C 875.078125 463.296875 873.5 464.242188 871.902344 465.152344 C 870.300781 466.058594 868.679688 466.929688 867.035156 467.765625 C 865.390625 468.597656 863.722656 469.394531 862.039062 470.148438 C 860.351562 470.90625 858.648438 471.621094 856.925781 472.296875 C 855.199219 472.976562 853.460938 473.609375 851.703125 474.207031 C 849.949219 474.804688 848.179688 475.355469 846.394531 475.871094 C 844.609375 476.382812 842.8125 476.855469 841.003906 477.285156 C 839.191406 477.714844 837.375 478.101562 835.542969 478.445312 C 833.714844 478.792969 831.878906 479.09375 830.035156 479.351562 C 828.1875 479.613281 826.335938 479.828125 824.480469 480.003906 C 822.625 480.175781 820.765625 480.304688 818.902344 480.394531 C 817.039062 480.480469 815.175781 480.523438 813.3125 480.523438 C 811.445312 480.523438 809.582031 480.480469 807.71875 480.394531 C 805.855469 480.304688 803.996094 480.175781 802.140625 480.003906 C 800.285156 479.828125 798.433594 479.613281 796.589844 479.351562 C 794.742188 479.09375 792.90625 478.792969 791.078125 478.445312 C 789.25 478.101562 787.429688 477.714844 785.621094 477.285156 C 783.808594 476.855469 782.011719 476.382812 780.226562 475.871094 C 778.445312 475.355469 776.671875 474.804688 774.917969 474.207031 C 773.160156 473.609375 771.421875 472.976562 769.699219 472.296875 C 767.976562 471.621094 766.269531 470.90625 764.585938 470.148438 C 762.898438 469.394531 761.234375 468.597656 759.585938 467.765625 C 757.941406 466.929688 756.320312 466.058594 754.722656 465.152344 C 753.121094 464.242188 751.546875 463.296875 749.996094 462.3125 C 748.445312 461.332031 746.917969 460.3125 745.421875 459.261719 C 743.921875 458.207031 742.453125 457.121094 741.011719 455.996094 C 739.570312 454.875 738.15625 453.722656 736.777344 452.535156 C 735.394531 451.347656 734.042969 450.128906 732.726562 448.878906 C 731.40625 447.625 730.121094 446.347656 728.867188 445.035156 C 727.617188 443.726562 726.398438 442.386719 725.214844 441.019531 C 724.03125 439.652344 722.882812 438.261719 721.773438 436.839844 C 720.660156 435.417969 719.589844 433.972656 718.550781 432.503906 C 717.515625 431.035156 716.519531 429.539062 715.558594 428.023438 C 714.601562 426.507812 713.679688 424.96875 712.800781 423.410156 C 711.921875 421.851562 711.085938 420.269531 710.285156 418.671875 C 709.488281 417.074219 708.734375 415.457031 708.019531 413.824219 C 707.304688 412.191406 706.636719 410.542969 706.007812 408.875 C 705.378906 407.210938 704.792969 405.535156 704.253906 403.839844 C 703.710938 402.148438 703.214844 400.445312 702.761719 398.730469 C 702.308594 397.015625 701.898438 395.289062 701.535156 393.554688 C 701.171875 391.820312 700.851562 390.082031 700.578125 388.332031 C 700.304688 386.582031 700.078125 384.828125 699.894531 383.066406 C 699.710938 381.308594 699.574219 379.546875 699.480469 377.777344 C 699.390625 376.011719 699.34375 374.246094 699.34375 372.476562 C 699.34375 370.710938 699.390625 368.941406 699.480469 367.175781 C 699.574219 365.410156 699.710938 363.648438 699.894531 361.886719 C 700.078125 360.128906 700.304688 358.371094 700.578125 356.625 C 700.851562 354.875 701.171875 353.132812 701.535156 351.398438 C 701.898438 349.664062 702.308594 347.941406 702.761719 346.222656 C 703.214844 344.507812 703.710938 342.804688 704.253906 341.113281 C 704.792969 339.421875 705.378906 337.742188 706.007812 336.078125 C 706.636719 334.414062 707.304688 332.765625 708.019531 331.128906 C 708.734375 329.496094 709.488281 327.878906 710.285156 326.28125 C 711.085938 324.683594 711.921875 323.105469 712.800781 321.546875 C 713.679688 319.984375 714.601562 318.449219 715.558594 316.929688 C 716.519531 315.414062 717.515625 313.921875 718.550781 312.449219 C 719.589844 310.980469 720.660156 309.535156 721.773438 308.113281 C 722.882812 306.695312 724.03125 305.300781 725.214844 303.933594 C 726.398438 302.566406 727.617188 301.230469 728.867188 299.917969 C 730.121094 298.609375 731.40625 297.328125 732.726562 296.078125 C 734.042969 294.828125 735.394531 293.609375 736.777344 292.421875 C 738.15625 291.234375 739.570312 290.078125 741.011719 288.957031 C 742.453125 287.835938 743.921875 286.746094 745.421875 285.695312 C 746.917969 284.640625 748.445312 283.625 749.996094 282.640625 C 751.546875 281.660156 753.121094 280.710938 754.722656 279.804688 C 756.320312 278.894531 757.941406 278.023438 759.589844 277.191406 C 761.234375 276.355469 762.898438 275.5625 764.585938 274.804688 C 766.269531 274.050781 767.976562 273.332031 769.699219 272.65625 C 771.421875 271.980469 773.160156 271.34375 774.917969 270.746094 C 776.671875 270.152344 778.445312 269.597656 780.230469 269.085938 C 782.011719 268.570312 783.808594 268.097656 785.621094 267.667969 C 787.429688 267.242188 789.25 266.851562 791.078125 266.507812 C 792.90625 266.164062 794.742188 265.859375 796.589844 265.601562 C 798.433594 265.34375 800.285156 265.125 802.140625 264.953125 C 803.996094 264.777344 805.855469 264.648438 807.71875 264.5625 C 809.582031 264.476562 811.445312 264.433594 813.3125 264.433594 C 815.175781 264.433594 817.039062 264.476562 818.902344 264.5625 C 820.765625 264.648438 822.625 264.777344 824.480469 264.953125 C 826.339844 265.125 828.1875 265.34375 830.035156 265.601562 C 831.878906 265.859375 833.714844 266.164062 835.542969 266.507812 C 837.375 266.851562 839.191406 267.242188 841.003906 267.667969 C 842.8125 268.097656 844.609375 268.570312 846.394531 269.085938 C 848.179688 269.597656 849.949219 270.152344 851.703125 270.746094 C 853.460938 271.34375 855.199219 271.980469 856.925781 272.65625 C 858.648438 273.332031 860.351562 274.050781 862.039062 274.804688 C 863.722656 275.5625 865.390625 276.355469 867.035156 277.191406 C 868.679688 278.023438 870.300781 278.894531 871.902344 279.804688 C 873.5 280.710938 875.078125 281.660156 876.628906 282.640625 C 878.179688 283.625 879.703125 284.640625 881.199219 285.695312 C 882.699219 286.746094 884.167969 287.835938 885.609375 288.957031 C 887.050781 290.078125 888.464844 291.234375 889.847656 292.421875 C 891.226562 293.609375 892.578125 294.828125 893.898438 296.078125 C 895.214844 297.328125 896.5 298.609375 897.753906 299.917969 C 899.007812 301.230469 900.226562 302.566406 901.40625 303.933594 C 902.589844 305.300781 903.738281 306.695312 904.847656 308.113281 C 905.960938 309.535156 907.035156 310.980469 908.070312 312.449219 C 909.105469 313.921875 910.105469 315.414062 911.0625 316.929688 C 912.023438 318.449219 912.941406 319.984375 913.820312 321.546875 C 914.699219 323.105469 915.539062 324.683594 916.335938 326.28125 C 917.132812 327.878906 917.886719 329.496094 918.601562 331.128906 C 919.316406 332.765625 919.988281 334.414062 920.613281 336.078125 C 921.242188 337.742188 921.828125 339.421875 922.371094 341.113281 C 922.910156 342.804688 923.410156 344.507812 923.863281 346.222656 C 924.316406 347.941406 924.722656 349.664062 925.085938 351.398438 C 925.449219 353.132812 925.769531 354.875 926.042969 356.625 C 926.316406 358.371094 926.546875 360.128906 926.726562 361.886719 C 926.910156 363.648438 927.046875 365.410156 927.140625 367.175781 C 927.230469 368.941406 927.277344 370.710938 927.277344 372.476562 Z M 927.277344 372.476562 " fill-opacity="1" fill-rule="nonzero"/><path fill="#535a63" d="M 813.3125 482.632812 C 782.328125 482.632812 753.195312 471.1875 731.273438 450.40625 C 709.324219 429.59375 697.234375 401.917969 697.234375 372.472656 C 697.234375 343.027344 709.324219 315.351562 731.273438 294.539062 C 753.191406 273.757812 782.332031 262.316406 813.3125 262.316406 C 844.296875 262.316406 873.433594 273.757812 895.347656 294.539062 C 917.296875 315.351562 929.386719 343.027344 929.386719 372.472656 C 929.386719 401.917969 917.296875 429.59375 895.347656 450.40625 C 873.429688 471.1875 844.296875 482.632812 813.3125 482.632812 Z M 699.34375 372.476562 L 701.453125 372.476562 C 701.453125 400.75 713.074219 427.34375 734.175781 447.347656 C 755.308594 467.382812 783.410156 478.414062 813.3125 478.414062 C 843.210938 478.414062 871.316406 467.378906 892.445312 447.347656 C 913.546875 427.34375 925.167969 400.75 925.167969 372.476562 C 925.167969 344.203125 913.546875 317.613281 892.445312 297.605469 C 871.316406 277.570312 843.210938 266.539062 813.3125 266.539062 C 783.410156 266.539062 755.308594 277.570312 734.175781 297.605469 C 713.074219 317.613281 701.453125 344.203125 701.453125 372.476562 Z M 699.34375 372.476562 " fill-opacity="1" fill-rule="nonzero"/><path fill="#7a8593" d="M 927.277344 372.476562 C 927.277344 431.539062 877.292969 479.523438 815.238281 480.5 C 778.339844 462.015625 755.726562 424.300781 748.777344 374.765625 C 743.832031 339.507812 750.519531 300.785156 760.113281 276.90625 C 775.992188 268.945312 794.09375 264.425781 813.3125 264.425781 C 876.253906 264.425781 927.277344 312.804688 927.277344 372.472656 Z M 927.277344 372.476562 " fill-opacity="1" fill-rule="nonzero"/><path fill="#535a63" d="M 815.238281 482.609375 C 814.910156 482.609375 814.589844 482.535156 814.292969 482.386719 C 795.773438 473.105469 780.527344 458.972656 768.984375 440.390625 C 757.726562 422.261719 750.226562 400.285156 746.691406 375.0625 C 744.371094 358.523438 744.441406 339.929688 746.902344 321.296875 C 749.078125 304.816406 753.070312 288.777344 758.15625 276.125 C 758.34375 275.648438 758.707031 275.257812 759.167969 275.023438 C 775.738281 266.714844 794.460938 262.324219 813.3125 262.324219 C 844.296875 262.324219 873.433594 273.769531 895.347656 294.550781 C 917.296875 315.355469 929.386719 343.035156 929.386719 372.480469 C 929.386719 401.597656 917.527344 429.054688 895.988281 449.792969 C 874.507812 470.476562 845.84375 482.132812 815.273438 482.613281 C 815.257812 482.613281 815.25 482.613281 815.238281 482.613281 Z M 761.773438 278.4375 C 752.777344 301.285156 745.96875 339.582031 750.867188 374.476562 C 754.320312 399.113281 761.625 420.539062 772.570312 438.164062 C 783.601562 455.925781 798.117188 469.453125 815.722656 478.386719 C 845.027344 477.796875 872.480469 466.578125 893.066406 446.753906 C 913.765625 426.820312 925.167969 400.445312 925.167969 372.476562 C 925.167969 344.511719 913.546875 317.609375 892.445312 297.605469 C 871.316406 277.570312 843.210938 266.539062 813.3125 266.539062 C 795.386719 266.539062 777.585938 270.652344 761.773438 278.441406 Z M 761.773438 278.4375 " fill-opacity="1" fill-rule="nonzero"/><path fill="#ffffff" d="M 774.039062 379.5 C 771.992188 370.710938 765.988281 363.882812 758.34375 360.449219 L 757.398438 356.390625 C 757.398438 356.390625 742.300781 358.359375 740.679688 358.738281 C 725.730469 362.214844 716.4375 377.144531 719.910156 392.089844 C 723.386719 407.035156 738.183594 415.660156 753.269531 412.855469 C 757.421875 412.082031 769.988281 410.503906 769.988281 410.503906 L 768.367188 403.519531 C 773.707031 397.066406 776.082031 388.285156 774.039062 379.5 Z M 774.039062 379.5 " fill-opacity="1" fill-rule="nonzero"/><path fill="#535a63" d="M 747.570312 415.484375 C 741.742188 415.484375 736.066406 413.929688 731.140625 410.921875 C 724.371094 406.789062 719.648438 400.269531 717.855469 392.5625 C 714.121094 376.511719 724.144531 360.414062 740.199219 356.679688 C 741.875 356.292969 755.570312 354.5 757.125 354.292969 C 758.199219 354.15625 759.203125 354.851562 759.453125 355.910156 L 760.167969 358.976562 C 768.261719 362.953125 774.039062 370.199219 776.09375 379.019531 C 778.144531 387.835938 776.160156 396.890625 770.652344 404.03125 L 772.042969 410.023438 C 772.179688 410.605469 772.0625 411.21875 771.71875 411.707031 C 771.378906 412.195312 770.847656 412.519531 770.25 412.59375 C 770.125 412.609375 757.695312 414.171875 753.652344 414.921875 C 751.625 415.300781 749.589844 415.484375 747.566406 415.484375 Z M 755.78125 358.726562 C 749.992188 359.488281 742.152344 360.554688 741.15625 360.789062 C 727.367188 363.996094 718.761719 377.820312 721.964844 391.609375 C 723.5 398.203125 727.539062 403.789062 733.335938 407.324219 C 739.078125 410.832031 746.019531 412.058594 752.886719 410.773438 C 755.996094 410.199219 763.558594 409.199219 767.410156 408.703125 L 766.3125 403.996094 C 766.164062 403.355469 766.320312 402.679688 766.742188 402.171875 C 771.90625 395.9375 773.816406 387.84375 771.984375 379.976562 C 770.152344 372.105469 764.871094 365.6875 757.480469 362.371094 C 756.878906 362.101562 756.4375 361.5625 756.289062 360.921875 L 755.78125 358.722656 Z M 755.78125 358.726562 " fill-opacity="1" fill-rule="nonzero"/><path fill="#ffffff" d="M 791.484375 383.445312 C 791.484375 384.355469 791.4375 385.261719 791.351562 386.167969 C 791.261719 387.074219 791.128906 387.972656 790.949219 388.867188 C 790.773438 389.757812 790.550781 390.640625 790.289062 391.511719 C 790.023438 392.378906 789.71875 393.234375 789.367188 394.078125 C 789.019531 394.917969 788.632812 395.738281 788.203125 396.542969 C 787.773438 397.34375 787.304688 398.125 786.800781 398.878906 C 786.296875 399.636719 785.753906 400.367188 785.175781 401.070312 C 784.597656 401.773438 783.988281 402.445312 783.34375 403.089844 C 782.703125 403.734375 782.027344 404.34375 781.324219 404.921875 C 780.621094 405.496094 779.890625 406.039062 779.132812 406.542969 C 778.378906 407.050781 777.597656 407.515625 776.796875 407.945312 C 775.992188 408.375 775.171875 408.761719 774.332031 409.113281 C 773.488281 409.460938 772.632812 409.765625 771.761719 410.03125 C 770.890625 410.292969 770.011719 410.515625 769.117188 410.691406 C 768.226562 410.871094 767.324219 411.003906 766.421875 411.09375 C 765.515625 411.183594 764.605469 411.226562 763.695312 411.226562 C 762.785156 411.226562 761.878906 411.183594 760.972656 411.09375 C 760.066406 411.003906 759.167969 410.871094 758.277344 410.691406 C 757.382812 410.515625 756.5 410.292969 755.628906 410.03125 C 754.757812 409.765625 753.902344 409.460938 753.0625 409.113281 C 752.222656 408.761719 751.402344 408.375 750.597656 407.945312 C 749.796875 407.515625 749.015625 407.050781 748.257812 406.542969 C 747.503906 406.039062 746.773438 405.496094 746.070312 404.921875 C 745.363281 404.34375 744.691406 403.734375 744.046875 403.089844 C 743.40625 402.445312 742.792969 401.773438 742.21875 401.070312 C 741.640625 400.367188 741.097656 399.636719 740.59375 398.878906 C 740.085938 398.125 739.621094 397.34375 739.191406 396.542969 C 738.761719 395.738281 738.371094 394.917969 738.023438 394.078125 C 737.675781 393.234375 737.371094 392.378906 737.105469 391.511719 C 736.84375 390.640625 736.621094 389.757812 736.445312 388.867188 C 736.265625 387.972656 736.132812 387.074219 736.042969 386.167969 C 735.953125 385.261719 735.910156 384.355469 735.910156 383.445312 C 735.910156 382.535156 735.953125 381.628906 736.042969 380.722656 C 736.132812 379.816406 736.265625 378.917969 736.445312 378.027344 C 736.621094 377.132812 736.84375 376.25 737.105469 375.382812 C 737.371094 374.511719 737.675781 373.65625 738.023438 372.8125 C 738.371094 371.972656 738.761719 371.152344 739.191406 370.351562 C 739.621094 369.546875 740.085938 368.769531 740.59375 368.011719 C 741.097656 367.253906 741.640625 366.523438 742.21875 365.820312 C 742.792969 365.117188 743.40625 364.445312 744.046875 363.800781 C 744.691406 363.15625 745.363281 362.546875 746.070312 361.96875 C 746.773438 361.394531 747.503906 360.851562 748.257812 360.347656 C 749.015625 359.839844 749.796875 359.375 750.597656 358.945312 C 751.402344 358.515625 752.222656 358.128906 753.0625 357.78125 C 753.902344 357.429688 754.757812 357.125 755.628906 356.859375 C 756.5 356.597656 757.382812 356.375 758.277344 356.199219 C 759.167969 356.019531 760.066406 355.886719 760.972656 355.796875 C 761.878906 355.710938 762.785156 355.664062 763.695312 355.664062 C 764.605469 355.664062 765.515625 355.710938 766.421875 355.796875 C 767.324219 355.886719 768.226562 356.019531 769.117188 356.199219 C 770.011719 356.375 770.890625 356.597656 771.761719 356.859375 C 772.632812 357.125 773.488281 357.429688 774.332031 357.78125 C 775.171875 358.128906 775.992188 358.515625 776.796875 358.945312 C 777.597656 359.375 778.378906 359.839844 779.132812 360.347656 C 779.890625 360.851562 780.621094 361.394531 781.324219 361.96875 C 782.027344 362.546875 782.703125 363.15625 783.34375 363.800781 C 783.988281 364.445312 784.597656 365.117188 785.175781 365.820312 C 785.753906 366.523438 786.296875 367.253906 786.800781 368.011719 C 787.304688 368.769531 787.773438 369.546875 788.203125 370.351562 C 788.632812 371.152344 789.019531 371.972656 789.367188 372.8125 C 789.71875 373.65625 790.023438 374.511719 790.289062 375.382812 C 790.550781 376.25 790.773438 377.132812 790.949219 378.027344 C 791.128906 378.917969 791.261719 379.816406 791.351562 380.722656 C 791.4375 381.628906 791.484375 382.535156 791.484375 383.445312 Z M 791.484375 383.445312 " fill-opacity="1" fill-rule="nonzero"/><path fill="#535a63" d="M 763.640625 413.34375 C 758.125 413.34375 752.699219 411.804688 747.902344 408.820312 C 741.121094 404.601562 736.390625 397.992188 734.582031 390.21875 C 730.84375 374.167969 740.871094 358.066406 756.921875 354.335938 C 764.699219 352.527344 772.71875 353.855469 779.496094 358.074219 C 786.273438 362.289062 791.007812 368.898438 792.816406 376.671875 C 794.625 384.449219 793.296875 392.464844 789.078125 399.242188 C 784.859375 406.019531 778.253906 410.75 770.476562 412.558594 C 768.207031 413.085938 765.914062 413.347656 763.644531 413.347656 Z M 763.746094 357.765625 C 761.792969 357.765625 759.828125 357.988281 757.878906 358.445312 C 744.09375 361.652344 735.484375 375.476562 738.6875 389.265625 C 740.242188 395.945312 744.308594 401.617188 750.128906 405.242188 C 755.949219 408.863281 762.835938 410.007812 769.515625 408.453125 C 776.199219 406.898438 781.871094 402.835938 785.5 397.015625 C 789.121094 391.195312 790.265625 384.308594 788.707031 377.628906 C 787.15625 370.949219 783.089844 365.277344 777.269531 361.652344 C 773.144531 359.085938 768.488281 357.765625 763.746094 357.765625 Z M 763.746094 357.765625 " fill-opacity="1" fill-rule="nonzero"/><path fill="#ffffff" d="M 379.089844 804.425781 C 379.089844 804.425781 426.691406 810.230469 462.6875 789.335938 C 498.675781 768.441406 528.863281 715.046875 550.929688 696.46875 C 572.988281 677.898438 603.175781 655.84375 613.625 639.59375 C 624.074219 623.339844 627.558594 600.128906 627.558594 600.128906 C 627.558594 600.128906 690.253906 568.785156 740.179688 571.105469 C 790.105469 573.429688 844.671875 610.574219 844.671875 610.574219 C 844.671875 610.574219 824.929688 689.503906 819.128906 726.652344 C 813.324219 763.796875 805.25 821.050781 764.617188 902.304688 C 723.980469 983.5625 571.433594 1056.902344 571.433594 1056.902344 L 540.785156 983.828125 C 540.785156 983.828125 613.121094 938.992188 629.863281 900.898438 C 650.324219 854.34375 646.089844 802.855469 646.089844 802.855469 C 646.089844 802.855469 617.105469 856.664062 569.503906 877.558594 C 521.902344 898.453125 379.09375 908.628906 379.09375 908.628906 L 379.09375 804.425781 Z M 379.089844 804.425781 " fill-opacity="1" fill-rule="nonzero"/><path fill="#535a63" d="M 571.433594 1059.011719 C 571.183594 1059.011719 570.929688 1058.964844 570.6875 1058.871094 C 570.148438 1058.664062 569.714844 1058.246094 569.492188 1057.714844 L 538.839844 984.640625 C 538.4375 983.683594 538.792969 982.578125 539.675781 982.035156 C 540.390625 981.59375 611.648438 937.105469 627.933594 900.050781 C 643.539062 864.539062 644.589844 825.671875 644.28125 810.074219 C 640.875 815.554688 635.140625 824.136719 627.277344 833.707031 C 615.09375 848.539062 595.324219 868.523438 570.351562 879.484375 C 550.421875 888.230469 512.1875 896.148438 456.707031 903.019531 C 415.476562 908.121094 379.597656 910.707031 379.242188 910.730469 C 378.660156 910.777344 378.082031 910.570312 377.65625 910.171875 C 377.226562 909.769531 376.984375 909.214844 376.984375 908.628906 L 376.984375 804.425781 C 376.984375 803.824219 377.242188 803.25 377.695312 802.851562 C 378.148438 802.449219 378.75 802.261719 379.351562 802.335938 C 379.820312 802.390625 426.691406 807.800781 461.632812 787.515625 C 483.5625 774.78125 503.261719 749.847656 520.644531 727.84375 C 531.566406 714.015625 541.003906 702.074219 549.574219 694.859375 C 554.738281 690.511719 560.21875 686.074219 566.023438 681.382812 C 584.707031 666.261719 604.03125 650.628906 611.859375 638.453125 C 621.933594 622.785156 625.445312 600.042969 625.476562 599.816406 C 625.578125 599.136719 626.003906 598.550781 626.621094 598.242188 C 626.777344 598.160156 642.671875 590.257812 664.46875 582.753906 C 684.636719 575.808594 714.164062 567.785156 740.285156 569.003906 C 766.429688 570.214844 793.753906 580.992188 812.070312 589.8125 C 831.867188 599.347656 845.730469 608.738281 845.867188 608.832031 C 846.597656 609.328125 846.941406 610.226562 846.730469 611.085938 C 846.53125 611.875 826.949219 690.351562 821.222656 726.980469 L 820.710938 730.273438 C 814.898438 767.621094 806.117188 824.070312 766.515625 903.25 C 757.128906 922.015625 741.050781 941.882812 718.722656 962.300781 C 700.929688 978.570312 679.140625 995.234375 653.957031 1011.835938 C 611.117188 1040.082031 572.742188 1058.617188 572.359375 1058.804688 C 572.070312 1058.941406 571.757812 1059.011719 571.445312 1059.011719 Z M 543.421875 984.65625 L 572.515625 1054.027344 C 580.902344 1049.863281 614.605469 1032.730469 651.671875 1008.289062 C 676.660156 991.808594 698.265625 975.285156 715.886719 959.171875 C 737.820312 939.109375 753.582031 919.664062 762.730469 901.367188 C 802.035156 822.769531 810.757812 766.714844 816.53125 729.625 L 817.042969 726.328125 C 822.363281 692.285156 839.550781 622.453125 842.261719 611.507812 C 833.949219 606.097656 784.746094 575.285156 740.078125 573.210938 C 714.621094 572.027344 685.648438 579.910156 665.832031 586.738281 C 647.332031 593.105469 633.179688 599.746094 629.460938 601.539062 C 628.621094 606.429688 624.785156 626.125 615.398438 640.730469 C 607.203125 653.476562 587.613281 669.328125 568.667969 684.65625 C 562.882812 689.335938 557.414062 693.757812 552.28125 698.082031 C 544.039062 705.023438 534.28125 717.375 523.945312 730.453125 C 506.332031 752.75 486.367188 778.019531 463.742188 791.15625 C 444.796875 802.15625 422.722656 805.742188 407.535156 806.820312 C 395.207031 807.691406 385.480469 807.117188 381.195312 806.75 L 381.195312 906.355469 C 399.617188 904.941406 525.179688 894.707031 568.648438 875.625 C 592.859375 865 612.117188 845.507812 624.011719 831.03125 C 636.929688 815.308594 644.15625 801.984375 644.226562 801.855469 C 644.667969 801.03125 645.601562 800.597656 646.511719 800.792969 C 647.429688 800.980469 648.105469 801.753906 648.183594 802.6875 C 648.226562 803.21875 649.238281 815.945312 647.746094 834.589844 C 646.363281 851.808594 642.476562 877.433594 631.789062 901.75 C 624.707031 917.867188 607.394531 936.894531 580.347656 958.304688 C 563.652344 971.523438 548.207031 981.601562 543.410156 984.660156 Z M 543.421875 984.65625 " fill-opacity="1" fill-rule="nonzero"/><path fill="#535a63" d="M 646.085938 804.964844 C 645.710938 804.964844 645.328125 804.863281 644.980469 804.652344 C 643.992188 804.039062 643.679688 802.742188 644.289062 801.75 C 651.082031 790.71875 661.644531 762.886719 661.75 762.609375 C 662.164062 761.519531 663.378906 760.972656 664.472656 761.382812 C 665.558594 761.792969 666.109375 763.007812 665.699219 764.101562 C 665.261719 765.261719 654.886719 792.585938 647.886719 803.960938 C 647.492188 804.609375 646.800781 804.964844 646.089844 804.964844 Z M 646.085938 804.964844 " fill-opacity="1" fill-rule="nonzero"/><path fill="#ffffff" d="M 618.195312 612.046875 C 618.195312 612.046875 664.25 588.175781 718.191406 585.390625 C 787.882812 581.789062 842.851562 628.042969 849.515625 626.042969 C 856.183594 624.046875 863.515625 581.386719 863.515625 581.386719 C 863.515625 581.386719 965.511719 563.394531 988.179688 546.0625 C 1010.84375 528.734375 1094.171875 406.765625 1094.171875 406.765625 L 1056.175781 364.109375 C 1056.175781 364.109375 1004.84375 414.097656 978.179688 430.09375 C 951.511719 446.085938 878.179688 460.082031 862.183594 456.753906 C 846.183594 453.421875 785.519531 446.085938 742.1875 448.085938 C 698.855469 450.085938 676.1875 459.417969 669.519531 464.746094 C 662.851562 470.078125 647.65625 502.1875 636.328125 535.511719 C 624.992188 568.835938 618.191406 612.039062 618.191406 612.039062 Z M 618.195312 612.046875 " fill-opacity="1" fill-rule="nonzero"/><path fill="#535a63" d="M 849.035156 628.21875 C 846.484375 628.21875 842.441406 626.046875 833.332031 620.96875 C 822.507812 614.929688 806.148438 605.796875 786.398438 598.632812 C 762.933594 590.125 740.023438 586.375 718.300781 587.496094 C 665.425781 590.230469 619.625 613.6875 619.164062 613.925781 C 618.460938 614.292969 617.609375 614.226562 616.960938 613.765625 C 616.316406 613.300781 615.988281 612.511719 616.109375 611.726562 C 616.179688 611.292969 623.070312 567.960938 634.332031 534.84375 C 645.828125 501.035156 661.027344 468.855469 668.203125 463.113281 C 672.550781 459.636719 681.054688 456 691.550781 453.144531 C 705.675781 449.292969 722.679688 446.886719 742.089844 445.992188 C 784.609375 444.027344 845.839844 451.203125 862.613281 454.699219 C 870.03125 456.242188 891.875 453.742188 915.738281 448.617188 C 942.53125 442.863281 965.46875 435.265625 977.09375 428.292969 C 1003.246094 412.605469 1054.191406 363.101562 1054.707031 362.605469 C 1055.121094 362.207031 1055.679688 361.988281 1056.253906 362.007812 C 1056.828125 362.027344 1057.371094 362.28125 1057.753906 362.710938 L 1095.753906 405.363281 C 1096.398438 406.085938 1096.46875 407.15625 1095.917969 407.957031 C 1092.507812 412.953125 1012.136719 530.40625 989.460938 547.742188 C 967.863281 564.25 878.382812 580.855469 865.332031 583.207031 C 864.734375 586.519531 863.144531 594.960938 861.066406 603.472656 C 856.113281 623.738281 852.757812 627.28125 850.125 628.066406 C 849.785156 628.167969 849.429688 628.21875 849.035156 628.21875 Z M 725.871094 583.085938 C 745.8125 583.085938 766.621094 586.96875 787.835938 594.671875 C 807.902344 601.953125 824.441406 611.179688 835.386719 617.285156 C 841.273438 620.570312 847.363281 623.964844 848.964844 624.003906 C 849.46875 623.730469 852.371094 621.359375 857.03125 602.214844 C 859.617188 591.59375 861.425781 581.140625 861.441406 581.035156 C 861.59375 580.160156 862.277344 579.472656 863.152344 579.316406 C 864.167969 579.140625 964.898438 561.214844 986.902344 544.390625 C 1007.761719 528.445312 1082.28125 420.367188 1091.503906 406.9375 L 1056.0625 367.15625 C 1047.066406 375.828125 1003.523438 417.351562 979.265625 431.902344 C 961.96875 442.277344 929.699219 449.925781 916.628906 452.734375 C 891.863281 458.050781 869.8125 460.496094 861.757812 458.820312 C 845.144531 455.355469 784.457031 448.25 742.285156 450.195312 C 699.410156 452.171875 677.203125 461.3125 670.839844 466.394531 C 665.132812 470.960938 650.378906 500.746094 638.324219 536.195312 C 629.171875 563.105469 622.925781 596.917969 620.949219 608.371094 C 633.050781 602.71875 673.054688 585.609375 718.082031 583.28125 C 720.660156 583.144531 723.261719 583.082031 725.871094 583.082031 Z M 725.871094 583.085938 " fill-opacity="1" fill-rule="nonzero"/><path fill="#becee2" d="M 604.652344 649.796875 C 616.3125 660.988281 681.144531 659.757812 698.898438 649.726562 C 716.652344 639.695312 756.011719 488.839844 756.011719 481.320312 C 756.011719 473.800781 674.199219 473.792969 651.042969 476.109375 C 627.886719 478.421875 612.449219 506.976562 596.246094 557.132812 C 580.035156 607.289062 597.914062 643.335938 604.652344 649.800781 Z M 604.652344 649.796875 " fill-opacity="1" fill-rule="nonzero"/><path fill="#535a63" d="M 647.945312 659.835938 C 637.757812 659.835938 611.261719 659.0625 603.191406 651.316406 C 598.957031 647.25 592.949219 635.796875 589.777344 620.265625 C 586.921875 606.292969 585.382812 583.882812 594.242188 556.476562 C 603.089844 529.097656 611.039062 510.371094 619.265625 497.535156 C 628.652344 482.882812 638.984375 475.1875 650.835938 474.003906 C 662.433594 472.84375 687.386719 472.339844 708.882812 472.828125 C 721.035156 473.105469 731.597656 473.679688 739.445312 474.488281 C 752.210938 475.808594 755.46875 477.445312 756.878906 478.722656 C 757.910156 479.652344 758.125 480.644531 758.125 481.316406 C 758.125 485.601562 748.0625 525.71875 736.132812 565.191406 C 729.25 587.972656 722.902344 606.757812 717.273438 621.011719 C 712.75 632.480469 706.027344 648.125 699.941406 651.566406 C 689.53125 657.449219 666.269531 659.695312 649.511719 659.835938 C 649.046875 659.835938 648.523438 659.839844 647.949219 659.839844 Z M 606.109375 648.277344 C 610.933594 652.910156 627.957031 655.785156 649.472656 655.613281 C 670.546875 655.441406 689.996094 652.335938 697.859375 647.890625 C 701.078125 646.074219 710.855469 634.257812 732.09375 563.972656 C 744.308594 523.546875 753.335938 486.757812 753.878906 481.699219 C 751.917969 480.246094 740.683594 477.796875 709.394531 477.058594 C 687.863281 476.546875 662.863281 477.039062 651.253906 478.199219 C 640.769531 479.25 631.464844 486.316406 622.8125 499.8125 C 614.785156 512.332031 606.984375 530.75 598.246094 557.773438 C 589.671875 584.308594 591.152344 605.941406 593.90625 619.421875 C 597.078125 634.953125 603.074219 645.363281 606.109375 648.277344 Z M 606.109375 648.277344 " fill-opacity="1" fill-rule="nonzero"/><path fill="#becee2" d="M 756.011719 481.320312 C 740.546875 473.984375 728.792969 480.574219 715.339844 495.113281 C 701.886719 509.648438 675.566406 593.015625 674.980469 616.992188 C 674.390625 640.964844 686.699219 650.738281 698.894531 649.730469 C 717.464844 648.191406 730.703125 592.097656 742.402344 559.355469 C 754.097656 526.609375 763.058594 484.667969 756.007812 481.324219 Z M 756.011719 481.320312 " fill-opacity="1" fill-rule="nonzero"/><path fill="#535a63" d="M 697.199219 651.90625 C 691.644531 651.90625 686.421875 649.835938 682.332031 645.976562 C 677.796875 641.703125 672.476562 633.191406 672.875 616.933594 C 673.464844 592.679688 700 508.585938 713.796875 493.679688 C 721.398438 485.460938 727.875 480.492188 734.160156 478.046875 C 741.511719 475.1875 748.957031 475.636719 756.917969 479.414062 C 759.714844 480.738281 762.898438 485.320312 758.316406 509.699219 C 755.480469 524.765625 750.277344 543.589844 744.390625 560.058594 C 741.988281 566.785156 739.535156 574.449219 736.9375 582.566406 C 726.257812 615.960938 715.210938 650.488281 699.070312 651.828125 C 698.441406 651.875 697.816406 651.902344 697.199219 651.902344 Z M 743.847656 480.421875 C 735.351562 480.421875 727.058594 485.554688 716.890625 496.546875 C 711.046875 502.867188 701.636719 524.5625 692.34375 553.167969 C 683.484375 580.425781 677.359375 606.09375 677.09375 617.046875 C 676.734375 631.75 681.316406 639.230469 685.226562 642.914062 C 688.894531 646.375 693.6875 648.050781 698.726562 647.628906 C 704.394531 647.164062 710.476562 639.925781 716.808594 626.121094 C 722.683594 613.3125 727.886719 597.03125 732.921875 581.289062 C 735.53125 573.140625 737.992188 565.4375 740.421875 558.644531 C 746.234375 542.371094 751.375 523.785156 754.171875 508.921875 C 758.5625 485.574219 755.152344 483.242188 755.113281 483.226562 C 751.210938 481.375 747.511719 480.421875 743.851562 480.421875 Z M 743.847656 480.421875 " fill-opacity="1" fill-rule="nonzero"/><path fill="#becee2" d="M 1034.992188 376.191406 C 1034.992188 376.191406 1050.316406 389.496094 1059.585938 400.378906 C 1068.855469 411.265625 1084.984375 429.804688 1084.984375 429.804688 C 1084.984375 429.804688 1103.132812 413.679688 1107.164062 411.664062 C 1111.195312 409.648438 1125.710938 404.007812 1141.03125 392.71875 C 1156.355469 381.429688 1171.273438 354.019531 1171.273438 346.761719 C 1171.273438 339.503906 1162.40625 327.816406 1155.144531 313.707031 C 1147.886719 299.597656 1127.613281 278.933594 1123.984375 276.511719 C 1120.355469 274.09375 1091.351562 314.386719 1091.351562 314.386719 L 1076.273438 292.839844 C 1076.273438 292.839844 1060.796875 312.09375 1056.363281 323.785156 C 1051.925781 335.472656 1050.199219 352.972656 1049.796875 355.449219 C 1049.390625 357.925781 1034.996094 376.1875 1034.996094 376.1875 Z M 1034.992188 376.191406 " fill-opacity="1" fill-rule="nonzero"/><path fill="#535a63" d="M 1084.992188 431.917969 C 1084.945312 431.917969 1084.902344 431.917969 1084.855469 431.914062 C 1084.292969 431.882812 1083.765625 431.621094 1083.398438 431.195312 C 1083.238281 431.007812 1067.15625 412.515625 1057.984375 401.75 C 1048.917969 391.113281 1033.765625 377.921875 1033.609375 377.789062 C 1032.757812 377.054688 1032.636719 375.777344 1033.335938 374.894531 C 1039.921875 366.535156 1047.066406 356.878906 1047.722656 355.042969 C 1047.777344 354.691406 1047.859375 354.023438 1047.964844 353.199219 C 1048.664062 347.742188 1050.515625 333.257812 1054.386719 323.046875 C 1058.886719 311.179688 1073.980469 292.328125 1074.621094 291.53125 C 1075.039062 291.011719 1075.671875 290.714844 1076.335938 290.742188 C 1076.996094 290.761719 1077.613281 291.09375 1077.992188 291.640625 L 1091.375 310.761719 C 1094 307.179688 1099.234375 300.101562 1104.644531 293.246094 C 1109.160156 287.523438 1112.914062 283.0625 1115.8125 279.976562 C 1120 275.523438 1122.867188 273.246094 1125.152344 274.769531 C 1129.074219 277.382812 1149.488281 298.113281 1157.019531 312.75 C 1159.351562 317.285156 1161.8125 321.5 1164.191406 325.578125 C 1169.324219 334.363281 1173.378906 341.300781 1173.378906 346.769531 C 1173.378906 355.425781 1157.394531 383.289062 1142.28125 394.421875 C 1129.441406 403.878906 1117.007812 409.5 1111.03125 412.203125 C 1109.765625 412.773438 1108.769531 413.226562 1108.105469 413.558594 C 1105.328125 414.945312 1093.59375 424.980469 1086.386719 431.386719 C 1086 431.734375 1085.5 431.917969 1084.984375 431.917969 Z M 1037.882812 375.925781 C 1041.992188 379.574219 1053.527344 390.015625 1061.195312 399.015625 C 1068.769531 407.902344 1081.0625 422.078125 1085.183594 426.820312 C 1089.898438 422.667969 1102.644531 411.566406 1106.222656 409.785156 C 1106.960938 409.414062 1107.988281 408.949219 1109.296875 408.359375 C 1115.144531 405.71875 1127.304688 400.21875 1139.785156 391.027344 C 1154.878906 379.90625 1169.164062 352.929688 1169.164062 346.769531 C 1169.164062 342.445312 1165.175781 335.613281 1160.558594 327.703125 C 1158.261719 323.773438 1155.660156 319.316406 1153.273438 314.679688 C 1146.640625 301.792969 1128.097656 282.449219 1123.390625 278.703125 C 1119.757812 280.800781 1106.792969 296.558594 1093.0625 315.625 C 1092.664062 316.183594 1092.015625 316.484375 1091.339844 316.503906 C 1090.65625 316.5 1090.019531 316.160156 1089.625 315.605469 L 1076.179688 296.390625 C 1072.046875 301.746094 1061.734375 315.585938 1058.335938 324.539062 C 1054.644531 334.28125 1052.835938 348.410156 1052.160156 353.730469 C 1052.035156 354.695312 1051.949219 355.394531 1051.878906 355.796875 C 1051.753906 356.566406 1051.546875 357.851562 1043.933594 368.019531 C 1041.59375 371.144531 1039.257812 374.167969 1037.882812 375.929688 Z M 1047.714844 355.117188 Z M 1047.714844 355.117188 " fill-opacity="1" fill-rule="nonzero"/><path fill="#becee2" d="M 578.777344 942.585938 C 578.777344 942.585938 545.011719 970.125 538.789062 973.234375 C 532.566406 976.34375 521.878906 979.554688 508.226562 985.367188 C 497.171875 990.074219 492.492188 996.015625 492.492188 996.015625 C 492.492188 996.015625 489.832031 1084.097656 489.105469 1110.234375 C 488.382812 1136.371094 475.171875 1217.328125 475.171875 1218.785156 C 475.171875 1220.238281 501.578125 1222.273438 512.921875 1217.375 C 534.554688 1208.035156 552.007812 1176.003906 556.699219 1161.851562 C 562.808594 1143.402344 576.472656 1100.554688 578.777344 1087.003906 C 581.085938 1073.449219 600.449219 1059.414062 609.402344 1054.09375 C 618.359375 1048.773438 629.980469 1044.171875 632.398438 1042.71875 C 634.820312 1041.269531 637.242188 1013.199219 629.253906 991.902344 C 621.265625 970.605469 597.53125 939.492188 578.777344 942.585938 Z M 578.777344 942.585938 " fill-opacity="1" fill-rule="nonzero"/><path fill="#535a63" d="M 490.585938 1222.59375 C 482.667969 1222.59375 475.753906 1221.789062 474.167969 1220.746094 C 473.46875 1220.285156 473.0625 1219.570312 473.0625 1218.789062 C 473.0625 1218.375 473.214844 1217.324219 474.550781 1208.5625 C 478.101562 1185.285156 486.425781 1130.78125 487 1110.179688 C 487.714844 1084.339844 490.359375 996.835938 490.386719 995.957031 C 490.398438 995.503906 490.558594 995.070312 490.835938 994.714844 C 491.042969 994.453125 495.976562 988.292969 507.398438 983.429688 C 514.132812 980.566406 520.03125 978.371094 525.238281 976.433594 C 530.5625 974.453125 534.769531 972.890625 537.84375 971.355469 C 542.773438 968.886719 568.097656 948.574219 577.441406 940.953125 C 577.726562 940.722656 578.066406 940.566406 578.433594 940.507812 C 584.867188 939.445312 595.496094 941.382812 609.597656 956.671875 C 618.628906 966.457031 626.914062 979.671875 631.222656 991.164062 C 635.949219 1003.773438 636.769531 1017.609375 636.832031 1024.734375 C 636.875 1029.414062 636.628906 1033.929688 636.136719 1037.457031 C 635.402344 1042.714844 634.425781 1043.964844 633.480469 1044.535156 C 632.539062 1045.097656 630.605469 1045.976562 627.9375 1047.1875 C 623.277344 1049.300781 616.234375 1052.492188 610.480469 1055.914062 C 608.242188 1057.242188 600.382812 1062.113281 593.039062 1069.007812 C 585.980469 1075.632812 581.773438 1081.980469 580.851562 1087.363281 C 578.558594 1100.839844 565.355469 1142.421875 558.695312 1162.523438 C 554.167969 1176.195312 536.5625 1209.472656 513.75 1219.320312 C 508.1875 1221.71875 498.832031 1222.597656 490.578125 1222.597656 Z M 477.472656 1217.464844 C 482.863281 1218.570312 502.867188 1219.425781 512.089844 1215.441406 C 532.40625 1206.667969 549.871094 1175.777344 554.703125 1161.191406 C 562.40625 1137.945312 574.617188 1098.914062 576.703125 1086.652344 C 579.566406 1069.820312 605.394531 1054.027344 608.328125 1052.285156 C 614.285156 1048.742188 621.453125 1045.492188 626.199219 1043.339844 C 628.300781 1042.386719 630.144531 1041.550781 631.039062 1041.070312 C 632.617188 1037.800781 634.828125 1012.773438 627.277344 992.644531 C 619.496094 971.898438 596.679688 942.476562 579.660156 944.589844 C 575.445312 948.015625 545.765625 972.109375 539.734375 975.125 C 536.457031 976.761719 532.160156 978.363281 526.714844 980.386719 C 521.550781 982.308594 515.695312 984.484375 509.058594 987.308594 C 500.503906 990.949219 495.9375 995.382812 494.582031 996.835938 C 494.320312 1005.515625 491.898438 1085.746094 491.214844 1110.292969 C 490.636719 1131.152344 482.285156 1185.84375 478.722656 1209.195312 C 478.183594 1212.734375 477.71875 1215.757812 477.46875 1217.464844 Z M 477.472656 1217.464844 " fill-opacity="1" fill-rule="nonzero"/><path fill="#becee2" d="M 429.261719 790.832031 C 429.261719 790.832031 439.601562 808.597656 443.972656 834.492188 C 448.339844 860.390625 439.289062 910.621094 434.921875 913.429688 C 430.550781 916.238281 368.757812 920.917969 365.328125 922.480469 C 361.894531 924.039062 347.226562 944.007812 331.308594 970.527344 C 315.394531 997.046875 295.730469 1008.90625 283.875 1010.777344 C 272.015625 1012.648438 243.929688 1005.472656 243.929688 1005.472656 L 297.070312 787.175781 C 297.070312 787.175781 313.679688 781.449219 331.308594 783.015625 C 344.527344 784.1875 374.375 790.503906 387.792969 792.375 C 401.214844 794.246094 429.257812 790.835938 429.257812 790.835938 Z M 429.261719 790.832031 " fill-opacity="1" fill-rule="nonzero"/><path fill="#535a63" d="M 279.210938 1013.195312 C 265.804688 1013.195312 244.433594 1007.777344 243.410156 1007.519531 C 242.292969 1007.230469 241.609375 1006.097656 241.882812 1004.976562 L 295.023438 786.679688 C 295.191406 785.984375 295.707031 785.417969 296.386719 785.1875 C 297.082031 784.945312 313.625 779.332031 331.5 780.914062 C 339.445312 781.617188 352.902344 784.082031 365.914062 786.464844 C 374.539062 788.039062 382.6875 789.535156 388.089844 790.289062 C 401.085938 792.101562 428.730469 788.773438 429.003906 788.742188 C 429.839844 788.636719 430.65625 789.042969 431.082031 789.773438 C 431.511719 790.511719 441.667969 808.167969 446.050781 834.144531 C 448.808594 850.492188 446.101562 873.699219 444.8125 882.914062 C 443.707031 890.796875 442.292969 898.3125 440.839844 904.070312 C 438.398438 913.699219 436.824219 914.714844 436.0625 915.203125 C 433.507812 916.847656 420.945312 918.363281 391.890625 921.355469 C 380.640625 922.511719 367.898438 923.824219 366.183594 924.402344 C 363.695312 925.710938 350.578125 942.523438 333.121094 971.605469 C 316.71875 998.941406 296.519531 1010.90625 284.207031 1012.851562 C 282.742188 1013.085938 281.050781 1013.183594 279.210938 1013.183594 Z M 246.480469 1003.925781 C 253.078125 1005.496094 274.050781 1010.195312 283.550781 1008.695312 C 300.644531 1005.996094 318.945312 987.035156 329.507812 969.445312 C 342.890625 947.140625 359.628906 922.757812 364.460938 920.5625 C 366.054688 919.835938 373.132812 919.054688 391.460938 917.167969 C 407.125 915.550781 430.71875 913.121094 433.730469 911.683594 C 435.1875 910.035156 438.390625 898.765625 440.761719 881.429688 C 443.316406 862.71875 443.730469 845.742188 441.894531 834.847656 C 438.277344 813.410156 430.410156 797.464844 428.09375 793.09375 C 422.140625 793.765625 399.457031 796.128906 387.507812 794.464844 C 382.011719 793.695312 373.820312 792.199219 365.152344 790.609375 C 352.835938 788.355469 338.878906 785.800781 331.128906 785.113281 C 316.691406 783.835938 302.753906 787.640625 298.84375 788.828125 L 246.484375 1003.925781 Z M 433.675781 911.738281 Z M 433.675781 911.738281 " fill-opacity="1" fill-rule="nonzero"/><path fill="#7a8593" d="M 243.933594 1005.472656 C 256.351562 1008.152344 277.902344 979.324219 292.707031 937.273438 C 306.546875 897.953125 317.070312 828.65625 313.945312 811.703125 C 310.820312 794.746094 308.320312 789.433594 297.074219 787.179688 C 285.824219 784.929688 276.453125 792.960938 268.417969 809.917969 C 260.382812 826.875 237.023438 887.417969 231.886719 929.6875 C 228.136719 960.53125 228.277344 1002.097656 243.933594 1005.476562 Z M 243.933594 1005.472656 " fill-opacity="1" fill-rule="nonzero"/><path fill="#535a63" d="M 245.539062 1007.75 C 244.839844 1007.75 244.15625 1007.679688 243.488281 1007.535156 C 221.984375 1002.894531 228.308594 941.660156 229.792969 929.429688 C 235.082031 885.910156 258.902344 825.078125 266.515625 809.011719 C 270.765625 800.039062 275.246094 793.726562 280.214844 789.703125 C 285.507812 785.417969 291.320312 783.875 297.488281 785.109375 C 310.425781 787.699219 312.957031 794.71875 316.019531 811.316406 C 319.246094 828.839844 308.570312 898.5625 294.699219 937.972656 C 280.371094 978.675781 259.703125 1007.746094 245.535156 1007.75 Z M 293.457031 788.921875 C 284.882812 788.921875 277.292969 796.125 270.328125 810.820312 C 261.671875 829.089844 238.925781 889.304688 233.984375 929.941406 C 231.855469 947.433594 231.402344 964.832031 232.734375 977.664062 C 234.351562 993.214844 238.378906 1002.117188 244.378906 1003.410156 C 244.78125 1003.496094 245.195312 1003.542969 245.628906 1003.542969 C 256.253906 1003.542969 276.269531 977.625 290.722656 936.574219 C 297.046875 918.59375 303.207031 892.785156 307.609375 865.761719 C 311.644531 840.996094 313.320312 819.929688 311.875 812.085938 C 308.6875 794.800781 306.273438 791.175781 296.664062 789.246094 C 295.582031 789.03125 294.511719 788.921875 293.457031 788.921875 Z M 293.457031 788.921875 " fill-opacity="1" fill-rule="nonzero"/><path fill="#7a8593" d="M 475.171875 1218.785156 C 492.683594 1220.917969 508.191406 1195.054688 516.742188 1161.195312 C 525.292969 1127.332031 525.949219 1067.832031 520.691406 1037.585938 C 515.429688 1007.339844 500.472656 996.519531 492.5 996.015625 C 484.523438 995.503906 468.082031 1011.089844 462.488281 1043.503906 C 458.5 1066.628906 450.976562 1131.609375 452.953125 1165.140625 C 454.925781 1198.675781 461.546875 1217.128906 475.171875 1218.785156 Z M 475.171875 1218.785156 " fill-opacity="1" fill-rule="nonzero"/><path fill="#535a63" d="M 477.179688 1221.015625 C 476.425781 1221.015625 475.671875 1220.96875 474.917969 1220.875 C 467.449219 1219.964844 461.671875 1214.519531 457.738281 1204.695312 C 454.136719 1195.6875 451.878906 1182.789062 450.851562 1165.265625 C 448.933594 1132.628906 456.054688 1068.414062 460.414062 1043.144531 C 463.636719 1024.464844 470.070312 1012.726562 474.902344 1006.164062 C 480.796875 998.160156 487.425781 993.578125 492.632812 993.910156 C 497.949219 994.246094 504.160156 998.136719 509.242188 1004.308594 C 515.714844 1012.164062 520.390625 1023.546875 522.769531 1037.226562 C 528.054688 1067.613281 527.476562 1127.308594 518.792969 1161.714844 C 514.328125 1179.390625 508.195312 1194.25 501.066406 1204.679688 C 493.722656 1215.414062 485.507812 1221.015625 477.183594 1221.015625 Z M 492.105469 998.109375 C 489.054688 998.109375 483.699219 1001.328125 478.296875 1008.660156 C 473.734375 1014.855469 467.652344 1025.992188 464.566406 1043.859375 C 456.421875 1091.089844 454.046875 1147.835938 455.0625 1165.015625 C 456.066406 1182.082031 458.21875 1194.550781 461.652344 1203.132812 C 465.015625 1211.535156 469.519531 1215.972656 475.429688 1216.691406 C 475.992188 1216.761719 476.5625 1216.792969 477.132812 1216.796875 C 491.410156 1216.796875 506 1195.144531 514.699219 1160.679688 C 523.261719 1126.777344 523.828125 1067.921875 518.613281 1037.945312 C 515.769531 1021.578125 510.175781 1012.078125 505.988281 1006.992188 C 500.859375 1000.761719 495.589844 998.324219 492.367188 998.117188 C 492.28125 998.113281 492.199219 998.109375 492.109375 998.109375 Z M 492.105469 998.109375 " fill-opacity="1" fill-rule="nonzero"/><path fill="#535a63" d="M 935.863281 566.15625 C 935.808594 566.15625 935.753906 566.15625 935.695312 566.148438 C 934.535156 566.058594 933.667969 565.042969 933.761719 563.882812 C 933.851562 562.710938 936.234375 534.953125 955.882812 518.335938 C 974.324219 502.738281 991.84375 499.523438 1003.289062 499.585938 C 1015.78125 499.652344 1023.832031 503.433594 1024.164062 503.59375 C 1025.214844 504.09375 1025.664062 505.355469 1025.15625 506.40625 C 1024.652344 507.457031 1023.394531 507.902344 1022.34375 507.398438 C 1022.269531 507.363281 1014.652344 503.820312 1003.046875 503.804688 C 992.34375 503.785156 975.972656 506.859375 958.597656 521.554688 C 940.28125 537.050781 937.976562 563.941406 937.957031 564.210938 C 937.867188 565.316406 936.945312 566.15625 935.855469 566.15625 Z M 935.863281 566.15625 " fill-opacity="1" fill-rule="nonzero"/><path fill="#535a63" d="M 1118.71875 318.015625 C 1118.320312 318.015625 1117.914062 317.902344 1117.558594 317.667969 C 1116.589844 317.023438 1116.324219 315.714844 1116.964844 314.742188 L 1134.828125 287.761719 C 1135.46875 286.789062 1136.78125 286.523438 1137.75 287.164062 C 1138.722656 287.804688 1138.988281 289.117188 1138.347656 290.085938 L 1120.484375 317.070312 C 1120.078125 317.683594 1119.40625 318.015625 1118.726562 318.015625 Z M 1118.71875 318.015625 " fill-opacity="1" fill-rule="nonzero"/><path fill="#535a63" d="M 1131.753906 333.839844 C 1131.351562 333.839844 1130.949219 333.722656 1130.59375 333.488281 C 1129.625 332.847656 1129.359375 331.535156 1130 330.566406 L 1147.863281 303.582031 C 1148.503906 302.613281 1149.8125 302.347656 1150.785156 302.988281 C 1151.753906 303.628906 1152.019531 304.941406 1151.378906 305.910156 L 1133.515625 332.894531 C 1133.113281 333.503906 1132.441406 333.839844 1131.757812 333.839844 Z M 1131.753906 333.839844 " fill-opacity="1" fill-rule="nonzero"/><path fill="#535a63" d="M 1147.855469 349.664062 C 1147.457031 349.664062 1147.046875 349.550781 1146.6875 349.308594 C 1145.71875 348.664062 1145.457031 347.351562 1146.105469 346.386719 L 1160.902344 324.214844 C 1161.546875 323.246094 1162.859375 322.984375 1163.824219 323.632812 C 1164.796875 324.277344 1165.058594 325.589844 1164.40625 326.554688 L 1149.613281 348.726562 C 1149.207031 349.339844 1148.535156 349.667969 1147.855469 349.667969 Z M 1147.855469 349.664062 " fill-opacity="1" fill-rule="nonzero"/></svg>